<svg width="20" height="20" viewBox="0 0 20 20" fill="none" xmlns="http://www.w3.org/2000/svg">
<g clip-path="url(#clip0_2_39)">
<path d="M-5 0H25.0228V20H-5V0Z" fill="#1EB53A"/>
<path d="M-5 0H25.0228V10H-5V0Z" fill="#0099B5"/>
<path d="M-5 6.40002H25.0361V13.6H-5V6.40002Z" fill="#CE1126"/>
<path d="M-5 6.80006H25.0427V13.2001H-5V6.80006Z" fill="white"/>
<path d="M7.29292 5.08608C8.28312 5.08608 9.08583 4.28336 9.08583 3.29316C9.08583 2.30296 8.28312 1.50024 7.29292 1.50024C6.30272 1.50024 5.5 2.30296 5.5 3.29316C5.5 4.28336 6.30272 5.08608 7.29292 5.08608Z" fill="white"/>
<path d="M7.89057 5.08608C8.88077 5.08608 9.68349 4.28336 9.68349 3.29316C9.68349 2.30296 8.88077 1.50024 7.89057 1.50024C6.90037 1.50024 6.09766 2.30296 6.09766 3.29316C6.09766 4.28336 6.90037 5.08608 7.89057 5.08608Z" fill="#0099B5"/>
<path d="M11.2373 4.36893L11.1265 4.70996L11.297 4.76536" fill="white"/>
<path d="M11.2373 4.36893L11.3481 4.70996L11.1776 4.76536" fill="white"/>
<path d="M11.5762 4.61679H11.2176V4.79608" fill="white"/>
<path d="M11.5762 4.61679L11.2861 4.82756L11.1807 4.68251" fill="white"/>
<path d="M10.8936 4.61618L11.1837 4.82695L11.289 4.6819" fill="white"/>
<path d="M10.8936 4.61618H11.2521V4.79547" fill="white"/>
<path d="M11.4463 5.01736L11.3355 4.67633L11.165 4.73174" fill="white"/>
<path d="M11.4463 5.01736L11.1562 4.80659L11.2616 4.66154" fill="white"/>
<path d="M11.0264 5.01468L11.3165 4.80391L11.2111 4.65886" fill="white"/>
<path d="M11.0264 5.01468L11.1372 4.67365L11.3077 4.72905" fill="white"/>
<path d="M11.2373 2.93479L11.1265 3.27582L11.297 3.33123" fill="white"/>
<path d="M11.2373 2.93479L11.3481 3.27582L11.1776 3.33123" fill="white"/>
<path d="M11.5762 3.18265H11.2176V3.36194" fill="white"/>
<path d="M11.5762 3.18265L11.2861 3.39342L11.1807 3.24837" fill="white"/>
<path d="M10.8936 3.18228L11.1837 3.39305L11.289 3.248" fill="white"/>
<path d="M10.8936 3.18228H11.2521V3.36157" fill="white"/>
<path d="M11.4463 3.58323L11.3355 3.2422L11.165 3.2976" fill="white"/>
<path d="M11.4463 3.58323L11.1562 3.37246L11.2616 3.22741" fill="white"/>
<path d="M11.0264 3.58054L11.3165 3.36977L11.2111 3.22472" fill="white"/>
<path d="M11.0264 3.58054L11.1372 3.23951L11.3077 3.29491" fill="white"/>
<path d="M11.2373 1.5L11.1265 1.84103L11.297 1.89644" fill="white"/>
<path d="M11.2373 1.5L11.3481 1.84103L11.1776 1.89644" fill="white"/>
<path d="M11.5762 1.74811H11.2176V1.9274" fill="white"/>
<path d="M11.5762 1.74811L11.2861 1.95888L11.1807 1.81383" fill="white"/>
<path d="M10.8938 1.74774L11.1839 1.95851L11.2893 1.81346" fill="white"/>
<path d="M10.8938 1.74774H11.2524V1.92703" fill="white"/>
<path d="M11.4465 2.14917L11.3357 1.80814L11.1652 1.86354" fill="white"/>
<path d="M11.4465 2.14917L11.1564 1.9384L11.2618 1.79335" fill="white"/>
<path d="M11.0266 2.14624L11.3167 1.93547L11.2113 1.79042" fill="white"/>
<path d="M11.0266 2.14624L11.1374 1.80521L11.3079 1.86061" fill="white"/>
<path d="M12.6719 4.3689L12.5611 4.70993L12.7316 4.76533" fill="white"/>
<path d="M12.6719 4.3689L12.7827 4.70993L12.6122 4.76533" fill="white"/>
<path d="M13.0117 4.61652H12.6531V4.79581" fill="white"/>
<path d="M13.0117 4.61652L12.7216 4.82729L12.6162 4.68224" fill="white"/>
<path d="M12.3301 4.61639L12.6202 4.82716L12.7256 4.68211" fill="white"/>
<path d="M12.3301 4.61639H12.6887V4.79569" fill="white"/>
<path d="M12.8818 5.01807L12.771 4.67703L12.6005 4.73244" fill="white"/>
<path d="M12.8818 5.01807L12.5917 4.8073L12.6971 4.66225" fill="white"/>
<path d="M12.46 5.01562L12.7501 4.80485L12.6447 4.6598" fill="white"/>
<path d="M12.46 5.01562L12.5708 4.67459L12.7413 4.73" fill="white"/>
<path d="M12.6719 2.93473L12.5611 3.27577L12.7316 3.33117" fill="white"/>
<path d="M12.6719 2.93473L12.7827 3.27577L12.6122 3.33117" fill="white"/>
<path d="M13.0117 3.1826H12.6531V3.36189" fill="white"/>
<path d="M13.0117 3.1826L12.7216 3.39337L12.6162 3.24832" fill="white"/>
<path d="M12.3301 3.18246L12.6202 3.39323L12.7256 3.24818" fill="white"/>
<path d="M12.3301 3.18246H12.6887V3.36175" fill="white"/>
<path d="M12.8818 3.58366L12.771 3.24263L12.6005 3.29803" fill="white"/>
<path d="M12.8818 3.58366L12.5917 3.37289L12.6971 3.22784" fill="white"/>
<path d="M12.46 3.58098L12.7501 3.37021L12.6447 3.22516" fill="white"/>
<path d="M12.46 3.58098L12.5708 3.23995L12.7413 3.29535" fill="white"/>
<path d="M12.6719 1.5L12.5611 1.84103L12.7316 1.89644" fill="white"/>
<path d="M12.6719 1.5L12.7827 1.84103L12.6122 1.89644" fill="white"/>
<path d="M13.0117 1.74786H12.6531V1.92716" fill="white"/>
<path d="M13.0117 1.74786L12.7216 1.95863L12.6162 1.81358" fill="white"/>
<path d="M12.3301 1.74772L12.6202 1.95849L12.7256 1.81344" fill="white"/>
<path d="M12.3301 1.74772H12.6887V1.92701" fill="white"/>
<path d="M12.8821 2.14917L12.7713 1.80814L12.6008 1.86354" fill="white"/>
<path d="M12.8821 2.14917L12.592 1.9384L12.6974 1.79335" fill="white"/>
<path d="M12.4602 2.14624L12.7503 1.93547L12.6449 1.79042" fill="white"/>
<path d="M12.4602 2.14624L12.571 1.80521L12.7415 1.86061" fill="white"/>
<path d="M14.1074 4.3689L13.9966 4.70993L14.1671 4.76533" fill="white"/>
<path d="M14.1074 4.3689L14.2182 4.70993L14.0477 4.76533" fill="white"/>
<path d="M14.4482 4.61646H14.0897V4.79575" fill="white"/>
<path d="M14.4482 4.61646L14.1581 4.82723L14.0528 4.68218" fill="white"/>
<path d="M13.7656 4.61639L14.0557 4.82716L14.1611 4.68211" fill="white"/>
<path d="M13.7656 4.61639H14.1242V4.79569" fill="white"/>
<path d="M14.3184 5.01807L14.2076 4.67703L14.037 4.73244" fill="white"/>
<path d="M14.3184 5.01807L14.0283 4.8073L14.1336 4.66225" fill="white"/>
<path d="M13.8975 5.01562L14.1876 4.80485L14.0822 4.6598" fill="white"/>
<path d="M13.8975 5.01562L14.0083 4.67459L14.1788 4.73" fill="white"/>
<path d="M14.1074 2.93457L13.9966 3.2756L14.1671 3.33101" fill="white"/>
<path d="M14.1074 2.93457L14.2182 3.2756L14.0477 3.33101" fill="white"/>
<path d="M14.4482 3.18237H14.0897V3.36166" fill="white"/>
<path d="M14.4482 3.18237L14.1581 3.39314L14.0528 3.24809" fill="white"/>
<path d="M13.7656 3.18231L14.0557 3.39308L14.1611 3.24803" fill="white"/>
<path d="M13.7656 3.18231H14.1242V3.3616" fill="white"/>
<path d="M14.3184 3.5835L14.2076 3.24246L14.037 3.29787" fill="white"/>
<path d="M14.3184 3.5835L14.0283 3.37273L14.1336 3.22768" fill="white"/>
<path d="M13.8975 3.58081L14.1876 3.37004L14.0822 3.22499" fill="white"/>
<path d="M13.8975 3.58081L14.0083 3.23978L14.1788 3.29518" fill="white"/>
<path d="M14.1074 1.5L13.9966 1.84103L14.1671 1.89644" fill="white"/>
<path d="M14.1074 1.5L14.2182 1.84103L14.0477 1.89644" fill="white"/>
<path d="M14.4463 1.74786H14.0877V1.92716" fill="white"/>
<path d="M14.4463 1.74786L14.1562 1.95863L14.0508 1.81358" fill="white"/>
<path d="M13.7676 1.74774L14.0577 1.95851L14.1631 1.81346" fill="white"/>
<path d="M13.7676 1.74774H14.1262V1.92703" fill="white"/>
<path d="M14.3184 2.14844L14.2076 1.8074L14.037 1.86281" fill="white"/>
<path d="M14.3184 2.14844L14.0283 1.93767L14.1336 1.79262" fill="white"/>
<path d="M13.8965 2.146L14.1866 1.93523L14.0812 1.79018" fill="white"/>
<path d="M13.8965 2.146L14.0073 1.80496L14.1778 1.86037" fill="white"/>
<path d="M8.37012 4.36875L8.25931 4.70978L8.42983 4.76519" fill="white"/>
<path d="M8.37012 4.36875L8.48093 4.70978L8.31041 4.76519" fill="white"/>
<path d="M8.70898 4.61662H8.3504V4.79591" fill="white"/>
<path d="M8.70898 4.61662L8.41888 4.82739L8.3135 4.68234" fill="white"/>
<path d="M8.02734 4.61625L8.31744 4.82702L8.42283 4.68197" fill="white"/>
<path d="M8.02734 4.61625H8.38593V4.79554" fill="white"/>
<path d="M8.58008 5.01817L8.46927 4.67713L8.29875 4.73254" fill="white"/>
<path d="M8.58008 5.01817L8.28998 4.8074L8.39536 4.66235" fill="white"/>
<path d="M8.1582 5.01524L8.4483 4.80447L8.34292 4.65942" fill="white"/>
<path d="M8.1582 5.01524L8.26901 4.6742L8.43953 4.72961" fill="white"/>
<path d="M9.80371 4.36893L9.6929 4.70996L9.86342 4.76536" fill="white"/>
<path d="M9.80371 4.36893L9.91452 4.70996L9.744 4.76536" fill="white"/>
<path d="M10.1436 4.61655H9.78497V4.79584" fill="white"/>
<path d="M10.1436 4.61655L9.85345 4.82732L9.74807 4.68227" fill="white"/>
<path d="M9.46289 4.61618L9.75299 4.82695L9.85838 4.6819" fill="white"/>
<path d="M9.46289 4.61618H9.82147V4.79547" fill="white"/>
<path d="M10.0127 5.01761L9.90189 4.67658L9.73137 4.73198" fill="white"/>
<path d="M10.0127 5.01761L9.7226 4.80684L9.82798 4.66179" fill="white"/>
<path d="M9.5918 5.01517L9.8819 4.8044L9.77651 4.65935" fill="white"/>
<path d="M9.5918 5.01517L9.70261 4.67413L9.87312 4.72954" fill="white"/>
<path d="M9.80469 2.93473L9.69388 3.27577L9.8644 3.33117" fill="white"/>
<path d="M9.80469 2.93473L9.9155 3.27577L9.74498 3.33117" fill="white"/>
<path d="M10.1445 3.18236H9.78595V3.36165" fill="white"/>
<path d="M10.1445 3.18236L9.85443 3.39313L9.74905 3.24808" fill="white"/>
<path d="M9.46289 3.18224L9.75299 3.39301L9.85838 3.24796" fill="white"/>
<path d="M9.46289 3.18224H9.82147V3.36153" fill="white"/>
<path d="M10.0127 3.58391L9.90189 3.24287L9.73137 3.29828" fill="white"/>
<path d="M10.0127 3.58391L9.7226 3.37314L9.82798 3.22809" fill="white"/>
<path d="M9.5918 3.58098L9.8819 3.37021L9.77651 3.22516" fill="white"/>
<path d="M9.5918 3.58098L9.70261 3.23995L9.87312 3.29535" fill="white"/>
</g>
<defs>
<clipPath id="clip0_2_39">
<rect width="20" height="20" rx="10" fill="white"/>
</clipPath>
</defs>
</svg>
